<svg xmlns="http://www.w3.org/2000/svg" version="1.1" xmlns:xlink="http://www.w3.org/1999/xlink" xmlns:svgjs="http://svgjs.dev/svgjs" width="1440" height="560" preserveAspectRatio="none" viewBox="0 0 1440 560"><g mask="url(&quot;#SvgjsMask1193&quot;)" fill="none"><rect width="1440" height="560" x="0" y="0" fill="rgba(255, 255, 255, 1)"></rect><path d="M14.13 -2.13L77.35 34.37L77.35 107.37L14.13 143.87L-49.09 107.37L-49.09 34.37zM77.35 107.37L140.57 143.87L140.57 216.87L77.35 253.37L14.13 216.87L14.13 143.87zM14.13 216.87L77.35 253.37L77.35 326.37L14.13 362.87L-49.09 326.37L-49.09 253.37zM203.79 107.37L267.02 143.87L267.02 216.87L203.79 253.37L140.57 216.87L140.57 143.87zM203.79 326.37L267.02 362.87L267.02 435.87L203.79 472.37L140.57 435.87L140.57 362.87zM203.79 545.37L267.02 581.87L267.02 654.87L203.79 691.37L140.57 654.87L140.57 581.87zM267.02 -2.13L330.24 34.37L330.24 107.37L267.02 143.87L203.79 107.37L203.79 34.37zM267.02 216.87L330.24 253.37L330.24 326.37L267.02 362.87L203.79 326.37L203.79 253.37zM330.24 326.37L393.46 362.87L393.46 435.87L330.24 472.37L267.02 435.87L267.02 362.87zM267.02 435.87L330.24 472.37L330.24 545.37L267.02 581.87L203.79 545.37L203.79 472.37zM330.24 545.37L393.46 581.87L393.46 654.87L330.24 691.37L267.02 654.87L267.02 581.87zM519.9 -2.13L583.12 34.37L583.12 107.37L519.9 143.87L456.68 107.37L456.68 34.37zM583.12 326.37L646.35 362.87L646.35 435.87L583.12 472.37L519.9 435.87L519.9 362.87zM519.9 435.87L583.12 472.37L583.12 545.37L519.9 581.87L456.68 545.37L456.68 472.37zM709.57 326.37L772.79 362.87L772.79 435.87L709.57 472.37L646.35 435.87L646.35 362.87zM772.79 435.87L836.01 472.37L836.01 545.37L772.79 581.87L709.57 545.37L709.57 472.37zM899.23 -2.13L962.45 34.37L962.45 107.37L899.23 143.87L836.01 107.37L836.01 34.37zM962.45 107.37L1025.68 143.87L1025.68 216.87L962.45 253.37L899.23 216.87L899.23 143.87zM1025.68 216.87L1088.9 253.37L1088.9 326.37L1025.68 362.87L962.45 326.37L962.45 253.37zM1088.9 545.37L1152.12 581.87L1152.12 654.87L1088.9 691.37L1025.68 654.87L1025.68 581.87zM1152.12 -2.13L1215.34 34.37L1215.34 107.37L1152.12 143.87L1088.9 107.37L1088.9 34.37zM1215.34 107.37L1278.56 143.87L1278.56 216.87L1215.34 253.37L1152.12 216.87L1152.12 143.87zM1215.34 326.37L1278.56 362.87L1278.56 435.87L1215.34 472.37L1152.12 435.87L1152.12 362.87zM1341.78 326.37L1405.01 362.87L1405.01 435.87L1341.78 472.37L1278.56 435.87L1278.56 362.87zM1278.56 435.87L1341.78 472.37L1341.78 545.37L1278.56 581.87L1215.34 545.37L1215.34 472.37zM1405.01 -2.13L1468.23 34.37L1468.23 107.37L1405.01 143.87L1341.78 107.37L1341.78 34.37z" stroke="rgba(136, 139, 142, 0.93)" stroke-width="2"></path></g><defs><mask id="SvgjsMask1193"><rect width="1440" height="560" fill="#ffffff"></rect></mask></defs></svg>